<svg xmlns="http://www.w3.org/2000/svg" viewBox="0 0 500 400">
  <style>
    .car { fill: #4a6cf7; }
    .road { fill: #333; }
    .person { fill: #555; }
    .map-pin { fill: #e74c3c; }
    .background { fill: #f5f5f5; }
    .magnifier { fill: none; stroke: #333; stroke-width: 4; }
  </style>
  <rect class="background" width="500" height="400" rx="10" />
  
  <!-- Road -->
  <rect class="road" x="50" y="250" width="400" height="30" rx="2" />
  <rect fill="white" x="70" y="263" width="40" height="4" />
  <rect fill="white" x="140" y="263" width="40" height="4" />
  <rect fill="white" x="210" y="263" width="40" height="4" />
  <rect fill="white" x="280" y="263" width="40" height="4" />
  <rect fill="white" x="350" y="263" width="40" height="4" />
  
  <!-- Car -->
  <g class="car" transform="translate(150, 220)">
    <rect x="20" y="15" width="120" height="25" rx="5" />
    <rect x="0" y="30" width="160" height="20" rx="5" />
    <circle cx="30" cy="50" r="10" fill="#333" />
    <circle cx="130" cy="50" r="10" fill="#333" />
  </g>
  
  <!-- Person with magnifying glass -->
  <g transform="translate(320, 180)">
    <circle class="person" cx="0" cy="0" r="15" /> <!-- Head -->
    <rect class="person" x="-10" y="15" width="20" height="40" rx="5" /> <!-- Body -->
    <rect class="person" x="-15" y="55" width="10" height="30" rx="2" /> <!-- Left leg -->
    <rect class="person" x="5" y="55" width="10" height="30" rx="2" /> <!-- Right leg -->
    
    <rect class="person" x="-25" y="25" width="10" height="30" rx="2" transform="rotate(45, -20, 30)" /> <!-- Left arm -->
    <rect class="person" x="15" y="25" width="10" height="40" rx="2" transform="rotate(-30, 20, 30)" /> <!-- Right arm holding magnifier -->
    
    <!-- Magnifying glass -->
    <circle class="magnifier" cx="40" cy="50" r="15" />
    <rect class="magnifier" x="50" y="60" width="20" height="5" rx="2" transform="rotate(45, 50, 60)" />
  </g>
  
  <!-- Map pin -->
  <g class="map-pin" transform="translate(250, 150)">
    <path d="M0,0 C-15,-25 -15,-45 0,-45 C15,-45 15,-25 0,0 Z" />
    <circle cx="0" cy="-35" r="5" fill="white" />
  </g>
</svg>
